PathFileType   4   (X/Y/Z)
DataRate	CameraRate	NumFrames	NumMarkers	Units	OrigDataRate	OrigDataStartFrame	OrigNumFrames
120.0	120.0	4	37	mm	120.0	18	142
Frame#	Time	midhip	hip_r	hip_l	knee_r	knee_l	ankle_r	ankle_l	midasis	asis_r	asis_l	psis_r	psis_l	epicondLat_r	epicondLat_l	epicondMed_r	epicondMed_l	malleolusLat_r	malleolusLat_l	malleolusMedv_r	malleolusMedv_l	neck	subclavicle_r	subclavicle_l	sternalnotch	xyphoidprocess	thighwand_r	thighwand_l	upperleg1_r	upperleg1_l	upperleg2_r	upperleg2_l	shankwand_r	shankwand_l	lowerleg1_r	lowerleg1_l	toe_r	toe_l
 	 	X1	Y1	Z1	X2	Y2	Z2	X3	Y3	Z3	X4	Y4	Z4	X5	Y5	Z5	X6	Y6	Z6	X7	Y7	Z7	X8	Y8	Z8	X9	Y9	Z9	X10	Y10	Z10	X11	Y11	Z11	X12	Y12	Z12	X13	Y13	Z13	X14	Y14	Z14	X15	Y15	Z15	X16	Y16	Z16	X17	Y17	Z17	X18	Y18	Z18	X19	Y19	Z19	X20	Y20	Z20	X21	Y21	Z21	X22	Y22	Z22	X23	Y23	Z23	X24	Y24	Z24	X25	Y25	Z25	X26	Y26	Z26	X27	Y27	Z27	X28	Y28	Z28	X29	Y29	Z29	X30	Y30	Z30	X31	Y31	Z31	X32	Y32	Z32	X33	Y33	Z33	X34	Y34	Z34	X35	Y35	Z35	X36	Y36	Z36	X37	Y37	Z37

	18	0.32500	751.875	897.981	-181.217	750.152	875.528	-113.617	744.208	874.925	-263.927	779.868	472.166	-120.531	842.924	464.498	-281.446	746.927	69.438	-158.898	589.893	166.374	-268.259	832.308	963.292	-192.491	836.989	963.767	-74.114	827.627	962.817	-310.869	645.666	1002.937	-151.985	647.531	997.140	-237.647	792.215	472.095	-63.349	838.739	465.960	-339.276	751.101	474.503	-173.035	857.501	437.136	-230.798	737.498	66.517	-120.135	570.502	181.493	-298.532	757.249	84.666	-186.230	604.191	174.117	-242.488	655.375	1432.050	-164.995	774.704	1345.215	-123.010	776.643	1353.313	-227.133	759.453	1358.447	-171.923	826.473	1189.483	-195.411	835.655	571.643	10.325	985.752	569.917	-305.078	840.829	640.268	-52.897	901.936	609.602	-330.030	837.519	554.341	-81.096	897.918	521.105	-329.209	774.130	187.418	-22.112	662.489	280.854	-388.962	754.685	162.277	-97.062	638.903	255.473	-314.991	871.021	38.902	-139.713	649.106	68.464	-303.209
	19	0.33333	757.567	898.297	-181.073	756.055	875.561	-113.288	750.105	875.585	-263.600	782.806	472.016	-120.660	854.708	466.535	-280.987	747.023	69.507	-159.093	608.983	162.441	-268.501	838.013	963.842	-191.792	842.697	963.823	-73.450	833.329	963.861	-310.134	651.288	1002.900	-151.066	652.961	997.513	-236.907	795.214	471.794	-63.491	850.724	467.975	-338.832	755.776	473.749	-173.121	870.166	439.426	-229.918	737.666	66.636	-120.309	589.058	177.308	-298.551	757.491	84.588	-186.387	623.763	170.228	-243.140	661.099	1432.406	-163.678	780.856	1345.712	-122.563	782.507	1353.903	-226.755	765.154	1358.810	-171.301	832.740	1190.143	-195.261	839.481	571.191	10.319	996.097	574.045	-304.006	844.777	639.490	-52.800	911.623	612.315	-329.674	841.724	553.995	-80.818	909.482	523.788	-328.452	775.346	187.105	-22.324	678.136	279.485	-388.718	755.489	162.371	-97.209	654.725	253.358	-315.466	871.123	38.949	-139.781	671.767	67.781	-305.225
	20	0.34167	763.137	898.479	-181.117	761.917	875.551	-112.985	755.982	876.200	-263.296	785.825	471.837	-120.823	866.149	468.606	-280.462	747.171	69.559	-159.174	628.505	158.147	-268.801	843.683	964.350	-191.104	848.354	963.839	-72.788	839.012	964.860	-309.420	656.823	1002.785	-150.199	658.388	997.862	-236.217	798.259	471.464	-63.661	862.376	470.022	-338.321	762.259	473.112	-174.797	882.883	441.170	-229.402	737.848	66.756	-120.377	608.020	172.708	-298.623	757.708	84.480	-186.412	643.770	166.140	-243.609	666.568	1432.813	-162.502	786.301	1346.110	-121.861	788.472	1354.173	-226.152	770.873	1359.135	-170.705	838.505	1190.437	-194.148	843.284	570.747	10.332	1006.138	578.056	-302.861	848.615	638.628	-52.821	921.065	614.989	-328.885	846.601	553.922	-81.111	920.855	526.394	-327.702	776.488	186.813	-22.500	693.901	277.846	-388.477	756.372	162.448	-97.247	671.497	250.465	-315.491	871.213	38.986	-139.828	694.815	66.874	-307.037
	21	0.35000	768.721	898.590	-181.168	767.747	875.487	-112.703	761.841	876.754	-263.011	788.886	471.642	-121.014	877.270	470.656	-279.873	747.362	69.584	-159.165	648.434	153.558	-269.125	849.330	964.796	-190.431	853.978	963.799	-72.129	844.682	965.793	-308.732	662.270	1002.593	-149.394	663.825	998.178	-235.585	801.322	471.117	-63.854	873.709	472.047	-337.747	768.532	472.943	-176.611	893.853	443.524	-228.779	738.038	66.865	-120.362	627.379	167.749	-298.727	757.950	84.398	-186.341	663.187	161.794	-243.763	671.961	1433.169	-161.907	791.857	1346.441	-121.010	793.889	1354.229	-225.913	776.596	1359.376	-170.174	843.907	1190.552	-193.192	847.059	570.311	10.342	1015.865	581.928	-301.667	851.898	638.419	-52.405	930.488	617.919	-328.012	851.203	553.855	-81.613	931.266	529.126	-326.877	777.548	186.541	-22.647	709.804	275.906	-388.239	757.141	162.339	-97.445	688.989	247.245	-315.088	871.286	39.011	-139.853	718.203	65.784	-308.648
